<?xml version="1.0" encoding="UTF-8"?>
<svg width="135px" height="26px" viewBox="0 0 135 26" version="1.1" xmlns="http://www.w3.org/2000/svg" xmlns:xlink="http://www.w3.org/1999/xlink">
    <!-- Generator: Sketch 48.2 (47327) - http://www.bohemiancoding.com/sketch -->
    <title>/Hero</title>
    <desc>Created with Sketch.</desc>
    <defs></defs>
    <g id="VerifyPayments-Documentation--Desktop-1170px--ver-2" stroke="none" stroke-width="1" fill="none" fill-rule="evenodd" transform="translate(-30.000000, -18.000000)">
        <g id="Nav-bar" transform="translate(0.000000, 18.000000)">
            <g id="/Hero" transform="translate(30.000000, 0.000000)">
                <g id="Top">
                    <g id="Logo" fill="#62B552" fill-rule="nonzero">
                        <g id="element" transform="translate(0.000000, 2.307692)">
                            <path d="M4.18118467,16.0430626 L0,11.861878 L1.11498258,10.7701242 L2.20673635,9.65514161 L6.41114983,13.8595551 L10.5923345,18.0407397 L9.50058072,19.1324935 C8.89663182,19.7364424 8.40882695,20.2242473 8.38559814,20.2242473 C8.36236934,20.2242473 6.48083624,18.3427142 4.18118467,16.0430626 Z" id="Shape"></path>
                            <path d="M12.543554,16.0430626 L8.36236934,11.861878 L9.47735192,10.7701242 L10.5691057,9.65514161 L13.6585366,12.7445725 L16.7479675,15.8107746 L24.5760743,7.98266774 L32.3809524,0.131332083 L33.4494774,1.17662825 C34.0301974,1.73411954 34.4947735,2.31483963 34.4947735,2.45421245 C34.4947735,2.68650049 17.0731707,20.2242473 16.8408827,20.2242473 C16.7711963,20.2242473 14.8432056,18.3427142 12.543554,16.0430626 Z" id="Shape"></path>
                            <path d="M15.7259001,10.8630394 C15.1916376,10.3287769 14.7502904,9.77128562 14.7502904,9.65514161 C14.7502904,9.51576878 16.8408827,7.33226123 19.3960511,4.77709283 L24.0418118,0.154560886 L25.087108,1.17662825 C25.6678281,1.73411954 26.1324042,2.26838202 26.1324042,2.33806844 C26.1324042,2.43098365 16.7944251,11.9083356 16.7479675,11.8386492 C16.7247387,11.8386492 16.2833914,11.3740731 15.7259001,10.8630394 Z" id="Shape"></path>
                        </g>
                        <g id="typo" transform="translate(38.461538, 0.000000)">
                            <path d="M50.2260341,25.8536585 C50.0634325,25.8072009 49.9240597,25.4587689 49.9240597,25.087108 C49.9240597,23.902439 50.0866613,23.7398374 51.1784151,23.8559814 C52.5024569,24.018583 53.2225498,23.3681765 53.9426427,21.3704994 L54.500134,19.8373984 L52.1075672,14.0534262 C50.7835254,10.8478513 49.7150004,8.1068525 49.6917716,7.96747967 C49.6917716,7.75842044 50.0866613,7.66550523 50.9228982,7.66550523 L52.1540248,7.66550523 L53.8961851,12.0789779 C54.8253373,14.5180023 55.684803,16.4924506 55.7544894,16.4924506 C55.8241758,16.4924506 56.637184,14.5412311 57.5198785,12.1486643 L59.1691236,7.78164925 L60.3537925,7.71196283 C61.0506567,7.66550523 61.5384615,7.73519164 61.5384615,7.87456446 C61.5384615,8.36236934 55.2899133,24.018583 54.8485661,24.5993031 C54.2213884,25.4819977 52.9902618,26.0162602 51.66622,25.9930314 C51.0390423,25.9930314 50.365407,25.9233449 50.2260341,25.8536585 Z" id="Shape"></path>
                            <path d="M17.8450817,20.0464576 C17.4966497,20 16.6604128,19.6283391 15.9867775,19.2102207 C14.9647101,18.6062718 14.5930492,18.1881533 13.9891003,17.0034843 C13.3386938,15.7723577 13.2225498,15.261324 13.2225498,13.9837398 C13.2225498,11.9860627 13.5245243,10.9175377 14.4536764,9.70963995 C15.568659,8.24622532 17.2875905,7.43321719 19.2852676,7.43321719 C22.8160457,7.43321719 24.6975788,9.26829268 25.1853837,13.1939605 L25.3479853,14.4018583 L20.4467078,14.4018583 C17.1714464,14.4018583 15.5454302,14.4715447 15.5454302,14.6341463 C15.5454302,14.7735192 15.7080318,15.2148664 15.917091,15.6329849 C17.217904,18.2346109 19.8659877,18.815331 22.188868,17.0267131 L23.257393,16.2369338 L24.0471723,16.8408827 C24.7208076,17.3519164 24.8137229,17.514518 24.5814348,17.9094077 C24.209774,18.6062718 22.3979273,19.6747967 21.0971143,19.9535424 C19.9589029,20.2090592 19.0297507,20.232288 17.8450817,20.0464576 Z M22.7463593,12.1486643 C22.7463593,11.4053426 21.8172072,10.1974448 21.0041991,9.84901278 C18.8671491,8.96631823 16.5210399,9.89547038 15.800947,11.9163763 L15.568659,12.543554 L19.1691236,12.543554 C22.4211561,12.543554 22.7463593,12.4970964 22.7463593,12.1486643 Z" id="Shape"></path>
                            <path d="M2.44438488,14.1695703 C1.19002948,11.1033682 0.121504512,8.38559814 0.0518181006,8.1300813 C-0.064325918,7.71196283 0.0518181006,7.66550523 1.19002948,7.66550523 L2.44438488,7.66550523 L4.27946038,12.2183508 L6.09130707,16.7711963 L7.18306084,13.9140534 C7.78700974,12.3344948 8.55356026,10.2671312 8.90199232,9.3612079 L9.55239882,7.66550523 L10.6906102,7.66550523 C11.4571607,7.66550523 11.8288216,7.75842044 11.8288216,7.96747967 C11.8055928,8.1068525 10.7835254,10.8013937 9.55239882,13.9372822 L7.29920486,19.6283391 L5.99839185,19.6980256 L4.72080765,19.767712 L2.44438488,14.1695703 Z" id="Shape"></path>
                            <path d="M28.0889842,14.4250871 C28.0889842,11.4982578 28.0192978,8.7804878 27.9496114,8.38559814 L27.8102385,7.66550523 L28.8555347,7.66550523 C29.8543733,7.66550523 29.9240597,7.71196283 30.0634325,8.38559814 L30.2260341,9.10569106 L30.713839,8.64111498 C31.5965335,7.85133566 32.6882873,7.43321719 33.9194139,7.43321719 L35.1273117,7.43321719 L34.9647101,8.1533101 C34.8950237,8.54819977 34.8253373,9.05923345 34.8253373,9.26829268 C34.8253373,9.59349593 34.616278,9.66318235 33.6871259,9.66318235 C32.2933977,9.63995354 31.4339319,10.1974448 30.7602966,11.5214866 C30.3886358,12.2648084 30.2957205,13.0545877 30.2260341,16.097561 L30.1331189,19.7444832 L29.1110516,19.7444832 L28.0889842,19.7444832 L28.0889842,14.4250871 Z" id="Shape"></path>
                            <polygon id="Shape" points="37.1482176 13.7049942 37.1482176 7.66550523 38.3096578 7.66550523 39.471098 7.66550523 39.471098 13.7049942 39.471098 19.7444832 38.3096578 19.7444832 37.1482176 19.7444832"></polygon>
                            <path d="M44.1168588,14.6341463 L44.1168588,9.52380952 L42.8392745,9.52380952 L41.5616903,9.52380952 L41.5616903,8.59465738 L41.5616903,7.66550523 L42.8392745,7.66550523 L44.1168588,7.66550523 L44.1168588,6.03948897 C44.1168588,1.8583043 45.4641294,0 48.460645,0 C50.0169749,0 50.2492629,0.209059233 50.0402037,1.37049942 C49.8776021,2.32288037 49.8776021,2.32288037 49.0878227,2.18350755 C47.0901456,1.81184669 46.4397391,2.67131243 46.4397391,5.69105691 L46.4397391,7.66550523 L47.8334673,7.66550523 L49.2271956,7.66550523 L49.2271956,8.59465738 L49.2271956,9.52380952 L47.8334673,9.52380952 L46.4397391,9.52380952 L46.4397391,14.6341463 L46.4397391,19.7444832 L45.2782989,19.7444832 L44.1168588,19.7444832 L44.1168588,14.6341463 Z" id="Shape"></path>
                            <path d="M37.2875905,4.29732869 C36.753328,3.7398374 36.637184,3.08943089 36.9623872,2.39256678 C37.217904,1.8583043 37.4501921,1.71893148 38.2399714,1.67247387 C39.0065219,1.62601626 39.2620388,1.69570267 39.5640132,2.13704994 C40.0750469,2.85714286 40.0285893,3.62369338 39.471098,4.18118467 C38.9136067,4.73867596 37.7986241,4.78513357 37.2875905,4.29732869 Z" id="Shape"></path>
                        </g>
                    </g>
                    <text id="API" opacity="0.600000024" font-family="NunitoSans-Bold, Nunito Sans" font-size="13" font-weight="bold" letter-spacing="1.5" fill="#868898">
                        <tspan x="111" y="18">API</tspan>
                    </text>
                </g>
            </g>
        </g>
    </g>
</svg>